<?xml version="1.0" encoding="UTF-8" standalone="no"?>
<!DOCTYPE svg PUBLIC "-//W3C//DTD SVG 1.1//EN" "http://www.w3.org/Graphics/SVG/1.1/DTD/svg11.dtd">
<svg width="100%" height="100%" viewBox="0 0 2000 2000" version="1.1" xmlns="http://www.w3.org/2000/svg" xmlns:xlink="http://www.w3.org/1999/xlink" xml:space="preserve" xmlns:serif="http://www.serif.com/" style="fill-rule:evenodd;clip-rule:evenodd;stroke-linejoin:round;stroke-miterlimit:1.41421;">
    <g transform="matrix(1,0,0,1,10.5775,12.1757)">
        <path d="M1401.37,284.999C1428.83,284.999 1451.12,307.293 1451.12,334.754L1451.12,1664.01C1451.12,1691.47 1428.83,1713.76 1401.37,1713.76L1301.86,1713.76C1282.68,1713.76 1266.02,1702.89 1257.71,1686.97C1256.21,1684.98 1254.84,1682.85 1253.63,1680.59C1253.63,1680.59 1047.01,1297.1 897.758,1020.09C880.376,987.827 843.296,971.501 807.763,980.464C772.229,989.428 747.33,1021.39 747.33,1058.03C747.33,1325.14 747.33,1664.01 747.33,1664.01C747.33,1691.47 725.036,1713.76 697.575,1713.76L598.065,1713.76C570.605,1713.76 548.31,1691.47 548.31,1664.01L548.31,334.754C548.31,307.293 570.604,284.999 598.065,284.999L697.575,284.999C717.039,284.999 733.907,296.199 742.08,312.5C743.377,314.285 744.569,316.178 745.644,318.173C745.644,318.173 952.371,701.864 1101.67,978.972C1119.06,1011.23 1156.13,1027.56 1191.67,1018.6C1227.2,1009.63 1252.1,977.673 1252.1,941.027C1252.1,673.815 1252.1,334.754 1252.1,334.754C1252.1,307.293 1274.39,284.999 1301.86,284.999L1401.37,284.999Z" style="fill:rgb(93,153,182);"/>
    </g>
    <g transform="matrix(1,0,0,1,-10.0085,-10.9366)">
        <path d="M1401.37,284.999C1428.83,284.999 1451.12,307.293 1451.12,334.754L1451.12,1664.01C1451.12,1691.47 1428.83,1713.76 1401.37,1713.76L1301.86,1713.76C1282.68,1713.76 1266.02,1702.89 1257.71,1686.97C1256.21,1684.98 1254.84,1682.85 1253.63,1680.59C1253.63,1680.59 1047.01,1297.1 897.758,1020.09C880.376,987.827 843.296,971.501 807.763,980.464C772.229,989.428 747.33,1021.39 747.33,1058.03C747.33,1325.14 747.33,1664.01 747.33,1664.01C747.33,1691.47 725.036,1713.76 697.575,1713.76L598.065,1713.76C570.605,1713.76 548.31,1691.47 548.31,1664.01L548.31,334.754C548.31,307.293 570.604,284.999 598.065,284.999L697.575,284.999C717.039,284.999 733.907,296.199 742.08,312.5C743.377,314.285 744.569,316.178 745.644,318.173C745.644,318.173 952.371,701.864 1101.67,978.972C1119.06,1011.23 1156.13,1027.56 1191.67,1018.6C1227.2,1009.63 1252.1,977.673 1252.1,941.027C1252.1,673.815 1252.1,334.754 1252.1,334.754C1252.1,307.293 1274.39,284.999 1301.86,284.999L1401.37,284.999Z" style="fill:rgb(93,153,182);fill-opacity:0.529412;"/>
    </g>
</svg>
